# xmcd CD database file
#
# Track frame offsets:
#	150
#	21334
#	34479
#	55696
#
# Disc length: 915 seconds
#
# Revision: 1
# Processed by: cddbd v1.5.1PL0 Copyright (c) Steve Scherf et al.
# Submitted via: CDex 1.50beta8
#
DISCID=2f039104
DTITLE=SaHKa - 先行者演義〜夢のその先に〜
DYEAR=2002
DGENRE=演歌
TTITLE0=先行者演義〜夢のその先に〜
TTITLE1=王大尉のテーマ
TTITLE2=先行者演義〜夢のその先に〜　カラオケバージョン
TTITLE3=王大尉のテーマ　カラオケバージョン
EXTD=YEAR: 2002
EXTT0=
EXTT1=
EXTT2=
EXTT3=
PLAYORDER=
